<svg width="75" height="75" viewBox="0 0 75 75" fill="none" xmlns="http://www.w3.org/2000/svg">
<path d="M62.5 62.4998H12.5C9.15786 62.5998 6.3638 59.979 6.25 56.6373V18.3592C6.36379 15.018 9.15838 12.398 12.5 12.4998H62.5C65.8416 12.398 68.6362 15.018 68.75 18.3592V56.6404C68.6345 59.9809 65.841 62.5999 62.5 62.4998ZM12.5 18.7498V56.2154L62.5 56.2498V18.7842L12.5 18.7498ZM41.9688 49.9998H18.75C18.9798 47.4125 20.2042 45.0152 22.1656 43.3123C24.3495 41.1458 27.2838 39.9036 30.3594 39.8436C33.435 39.9036 36.3693 41.1458 38.5531 43.3123C40.514 45.0156 41.7383 47.4127 41.9688 49.9998ZM56.25 46.8748H46.875V40.6248H56.25V46.8748ZM30.3594 37.4998C28.6846 37.558 27.0609 36.9182 25.8759 35.7333C24.6909 34.5483 24.0512 32.9246 24.1094 31.2498C24.0521 29.5753 24.6922 27.9521 25.8769 26.7674C27.0617 25.5826 28.6849 24.9426 30.3594 24.9998C32.0339 24.9426 33.6571 25.5826 34.8418 26.7674C36.0266 27.9521 36.6666 29.5753 36.6094 31.2498C36.6676 32.9246 36.0278 34.5483 34.8428 35.7333C33.6579 36.9182 32.0341 37.558 30.3594 37.4998ZM56.25 34.3748H43.75V28.1248H56.25V34.3748Z" fill="white"/>
</svg>
