<svg width="75" height="75" viewBox="0 0 75 75" fill="none" xmlns="http://www.w3.org/2000/svg">
<path d="M37.5 68.7501L28.125 59.3751H15.625C12.1732 59.3751 9.375 56.5768 9.375 53.1251V12.5001C9.375 9.04828 12.1732 6.25006 15.625 6.25006H59.375C62.8268 6.25006 65.625 9.04828 65.625 12.5001V53.1251C65.625 56.5768 62.8268 59.3751 59.375 59.3751H46.875L37.5 68.7501ZM15.625 12.5001V53.1251H31.25L37.5 59.3751L43.75 53.1251H59.375V12.5001H15.625ZM50 46.8313H25V45.6251C25.3698 39.0785 30.9508 34.0557 37.5 34.3751C44.0492 34.0557 49.6302 39.0785 50 45.6251V46.8282V46.8313ZM37.5 31.2501C35.8252 31.3083 34.2015 30.6685 33.0165 29.4835C31.8316 28.2986 31.1918 26.6748 31.25 25.0001C31.1927 23.3256 31.8328 21.7024 33.0176 20.5176C34.2023 19.3329 35.8255 18.6928 37.5 18.7501C39.1745 18.6928 40.7977 19.3329 41.9824 20.5176C43.1672 21.7024 43.8073 23.3256 43.75 25.0001C43.8082 26.6748 43.1684 28.2986 41.9835 29.4835C40.7985 30.6685 39.1748 31.3083 37.5 31.2501Z" fill="black"/>
</svg>
