<svg width="75" height="75" viewBox="0 0 75 75" fill="none" xmlns="http://www.w3.org/2000/svg">
<path d="M59.375 68.7501H15.625C12.1732 68.7501 9.375 65.9518 9.375 62.5001V18.7501C9.375 15.2983 12.1732 12.5001 15.625 12.5001H21.875V6.25006H28.125V12.5001H46.875V6.25006H53.125V12.5001H59.375C62.8268 12.5001 65.625 15.2983 65.625 18.7501V62.5001C65.625 65.9518 62.8268 68.7501 59.375 68.7501ZM15.625 31.2501V62.5001H59.375V31.2501H15.625ZM15.625 18.7501V25.0001H59.375V18.7501H15.625ZM40.625 56.2501H34.375V50.0001H28.125V43.7501H34.375V37.5001H40.625V43.7501H46.875V50.0001H40.625V56.2501Z" fill="white"/>
</svg>
