<svg width="75" height="75" viewBox="0 0 75 75" fill="none" xmlns="http://www.w3.org/2000/svg">
<path d="M13.8125 64.3092C12.9359 64.3077 12.1002 63.9381 11.5094 63.2905C10.9076 62.6482 10.6086 61.7796 10.6875 60.903L11.4531 52.4842L46.8218 17.128L57.875 28.178L22.5156 63.5311L14.0969 64.2967C14 64.3061 13.9031 64.3092 13.8125 64.3092ZM60.0812 25.9686L49.0312 14.9186L55.6594 8.29048C56.2455 7.70368 57.0409 7.37396 57.8703 7.37396C58.6997 7.37396 59.4951 7.70368 60.0812 8.29048L66.7094 14.9186C67.2962 15.5048 67.6259 16.3001 67.6259 17.1295C67.6259 17.9589 67.2962 18.7543 66.7094 19.3405L60.0843 25.9655L60.0812 25.9686Z" fill="#FEFEFF"/>
</svg>
