<svg width="75" height="75" viewBox="0 0 75 75" fill="none" xmlns="http://www.w3.org/2000/svg">
<path d="M56.25 68.7498H18.75C15.2982 68.7498 12.5 65.9516 12.5 62.4998V12.4998C12.5 9.04801 15.2982 6.24979 18.75 6.24979H40.625C40.653 6.24616 40.6814 6.24616 40.7094 6.24979H40.7281C40.7576 6.25904 40.788 6.26532 40.8188 6.26854C41.0943 6.28621 41.3664 6.33979 41.6281 6.42792H41.675H41.7219H41.7594C41.817 6.46831 41.8714 6.51325 41.9219 6.56229C42.2623 6.71362 42.5725 6.92537 42.8375 7.18729L61.5875 25.9373C61.8494 26.2023 62.0612 26.5125 62.2125 26.8529C62.2406 26.9217 62.2625 26.9873 62.2844 27.0592L62.3156 27.1467C62.4029 27.4073 62.4544 27.6785 62.4688 27.9529C62.4715 27.9841 62.4788 28.0146 62.4906 28.0435V28.0623C62.4958 28.0828 62.4989 28.1037 62.5 28.1248V62.4998C62.5 64.1574 61.8415 65.7471 60.6694 66.9192C59.4973 68.0913 57.9076 68.7498 56.25 68.7498ZM45.075 43.7498V59.3748H48.0125V52.9998H52.575V50.381H48.0125V46.3779H53.125V43.7498H45.075ZM33.5125 43.7498V59.3748H37.2812C38.8623 59.4525 40.3932 58.8089 41.4438 57.6248C42.5216 56.2495 43.0615 54.5287 42.9625 52.7842V50.2529C43.0349 48.5268 42.4799 46.8328 41.4 45.4842C40.3832 44.3268 38.8988 43.6896 37.3594 43.7498H33.5125ZM21.875 43.7498V59.3748H24.8125V53.8779H26.7688C28.0751 53.9502 29.351 53.4666 30.2812 52.5467C31.169 51.5542 31.6294 50.2516 31.5625 48.9217C31.6205 47.5599 31.1605 46.2267 30.275 45.1904C29.3991 44.2191 28.1347 43.6907 26.8281 43.7498H21.875ZM40.625 12.4998V28.1248H56.25L40.625 12.4998ZM37.3313 56.756H36.45V46.3779H37.5187C38.2777 46.3332 39.0074 46.6769 39.4563 47.2904C39.9144 48.2382 40.1108 49.2912 40.025 50.3404V53.056C40.0936 54.0553 39.8769 55.0534 39.4 55.9342C38.8878 56.5321 38.1141 56.8394 37.3313 56.756ZM26.8281 51.2498H24.8094V46.3779H26.8562C27.3672 46.3834 27.8395 46.6514 28.1062 47.0873C28.4444 47.6453 28.6077 48.2919 28.575 48.9435C28.6142 49.5513 28.4528 50.1551 28.1156 50.6623C27.8048 51.0524 27.3265 51.2707 26.8281 51.2498Z" fill="white"/>
</svg>
