<svg width="75" height="75" viewBox="0 0 75 75" fill="none" xmlns="http://www.w3.org/2000/svg">
<path d="M12.5 59.375H6.25C6.25 49.0197 14.6447 40.625 25 40.625C35.3553 40.625 43.75 49.0197 43.75 59.375H37.5C37.5 52.4714 31.9036 46.875 25 46.875C18.0964 46.875 12.5 52.4714 12.5 59.375ZM49.9813 48.1562L41.525 39.7188L45.9375 35.2875L49.975 39.325L63.4125 25.9125L67.825 30.3375L49.975 48.15L49.9813 48.1562ZM25 37.5C18.0964 37.5 12.5 31.9036 12.5 25C12.5 18.0964 18.0964 12.5 25 12.5C31.9036 12.5 37.5 18.0964 37.5 25C37.4914 31.9 31.9 37.4914 25 37.5ZM25 18.75C21.5856 18.7535 18.8059 21.4964 18.757 24.9104C18.708 28.3245 21.408 31.1459 24.8209 31.2472C28.2338 31.3485 31.0964 28.6922 31.25 25.2812V26.5313V25C31.25 21.5482 28.4518 18.75 25 18.75Z" fill="white"/>
</svg>
